<?xml version="1.0" encoding="UTF-8"?>
<!-- Created with Inkscape (http://www.inkscape.org/) -->
<svg width="424.3mm" height="146.41mm" version="1.1" viewBox="0 0 424.3 146.41" xml:space="preserve" xmlns="http://www.w3.org/2000/svg"><g transform="translate(618.2 11.859)"><g transform="translate(-30.203 -167.38)"><path d="m-525.1 301.79c-1.6007-0.12873-3.6248-0.36446-4.4979-0.52383-3.1004-0.56594-4.5064-0.85396-5.1594-1.0569-0.3638-0.11307-1.1972-0.35202-1.8521-0.53101-0.65484-0.17898-1.4288-0.41441-1.7198-0.52319-0.29104-0.10877-1.0054-0.34119-1.5875-0.51649-0.58208-0.17531-1.2965-0.41688-1.5875-0.53684s-1.6603-0.67295-3.0427-1.2289c-4.7235-1.8995-9.8893-4.8456-14.023-7.9975-4.679-3.5678-10.135-9.0885-13.488-13.648-0.65155-0.88604-1.2623-1.6705-1.3572-1.7433-0.21862-0.16762-3.9355-5.8698-4.842-7.4282-1.1522-1.9808-3.939-7.8539-4.6359-9.7698-0.18525-0.50932-0.43605-1.1642-0.55733-1.4552-0.72515-1.7401-2.1504-6.5996-2.6773-9.1281-0.94044-4.5135-1.1803-6.0763-1.5835-10.319-0.71737-7.5477-0.0868-16.944 1.607-23.945 0.14082-0.58209 0.37494-1.5941 0.52027-2.249 0.14533-0.65485 0.57873-2.2027 0.96311-3.4396 0.38438-1.2369 0.75748-2.4871 0.82912-2.7781 0.0716-0.29104 0.23936-0.79706 0.37274-1.1245 0.13337-0.32742 0.36156-0.89297 0.50708-1.2568s0.38365-0.95912 0.52917-1.3229 0.36614-0.92935 0.49027-1.2568c0.35683-0.94122 3.934-8.1429 4.6984-9.4588 0.38035-0.65485 1.214-1.9405 1.8525-2.857s1.1609-1.7188 1.1609-1.7829c0-0.0641 0.16997-0.32632 0.37771-0.58264 0.20775-0.25633 1.2379-1.5376 2.2892-2.8473 2.103-2.6198 7.2961-7.907 9.3716-9.5415 0.72761-0.57299 1.3824-1.1016 1.4552-1.1748 0.46297-0.46531 3.4072-2.5585 5.424-3.8561 2.7325-1.7581 7.6966-4.286 11.245-5.7261 0.3638-0.14766 0.8682-0.37364 1.1209-0.50219 0.25269-0.12854 0.69215-0.23371 0.97657-0.23371 0.28443 0 0.58194-0.10485 0.66114-0.23299 0.0792-0.12815 0.41365-0.29846 0.74322-0.37847 0.32957-0.08 1.0159-0.26251 1.5253-0.40554 2.4497-0.68797 4.0109-1.0732 5.9531-1.4688 6.9399-1.4138 8.5014-1.5556 15.346-1.3934 5.6751 0.13443 7.4888 0.28969 10.848 0.92866 0.7276 0.1384 1.9778 0.3728 2.7781 0.52088 2.5234 0.46688 7.2648 1.8188 9.3927 2.6781 9.8945 3.9958 19.402 10.716 25.944 18.338 2.8731 3.3474 3.2006 3.7469 3.9713 4.845 2.1248 3.0273 3.0256 4.3691 3.0256 4.5065 0 0.0873 0.22418 0.47483 0.49819 0.8611 2.0999 2.9602 6.0648 11.662 7.4328 16.313 2.5376 8.6268 3.5699 15.465 3.555 23.548-0.0144 7.8371-0.92302 14.685-2.9662 22.357-0.38758 1.4553-2.1034 6.5202-2.555 7.5421-0.22472 0.50851-0.6011 1.371-0.8364 1.9167-4.0415 9.373-11.379 19.393-18.756 25.613-1.6818 1.418-5.7615 4.5348-6.6267 5.0627-0.28365 0.17305-1.4682 0.905-2.6324 1.6265-2.8606 1.773-6.1011 3.4191-9.1281 4.637-1.3824 0.5562-2.7203 1.1194-2.973 1.2514-0.25268 0.13209-0.69214 0.24015-0.97657 0.24015s-0.59073 0.11906-0.68066 0.26458c-0.0899 0.14553-0.44713 0.26459-0.79375 0.26459-0.34663 0-0.69533 0.10533-0.7749 0.23408-0.0796 0.12874-0.47355 0.29753-0.87551 0.37509-0.40196 0.0776-1.2071 0.27887-1.7892 0.44734-1.8306 0.52982-4.8538 1.1273-8.0698 1.5948-2.5554 0.3715-11.092 0.52228-14.42 0.25468zm14.023-6.1081c5.2816-0.77012 10.556-2.0733 10.127-2.5023-0.0733-0.0733-4.4654-0.17696-9.7601-0.23031-11.138-0.11221-17.668-0.57217-17.007-1.1981 0.49207-0.46624 3.3058-0.58412 18.096-0.75809l15.214-0.17895 1.9844-0.9885c3.2981-1.6429 5.1131-2.709 5.2351-3.0751 0.095-0.28504-2.8151-0.32273-16.252-0.2105-9.0022 0.0752-18.808 0.26269-21.792 0.41666-2.9832 0.15398-9.5079 0.38651-14.499 0.51675-4.9915 0.13024-9.1569 0.31824-9.2565 0.41778-0.0996 0.0995 0.11489 0.40892 0.47652 0.68752 0.61956 0.47731 6.1257 3.272 7.2721 3.691 0.29104 0.10637 0.82682 0.3224 1.1906 0.48007 2.1781 0.94393 6.7016 2.0741 11.377 2.8425 3.6922 0.60683 13.698 0.65773 17.595 0.0895zm-22.622-10.571c17.174-0.68918 23.886-0.81987 36.091-0.70274 11.046 0.10601 13.352 0.065 14.108-0.25069 1.2528-0.52343 4.3716-3.454 3.96-3.7209-0.17415-0.11293-7.1032-0.16864-15.398-0.1238-20.13 0.10883-23.648-0.19882-32.874-2.8748-3.0434-0.88267-2.7538-0.81501-7.0776-1.6538-3.98-0.77207-5.8245-0.98047-10.98-1.2406-5.7497-0.29014-16.268-0.34767-17.783-0.0973-0.9668 0.15983-0.97622 0.17304-0.61079 0.85698 0.45798 0.85718 1.3498 1.8497 2.356 2.6222 0.74229 0.56985 0.95003 0.58597 7.5528 0.58597 11.423 0 21.672 0.67668 20.965 1.3842-0.32109 0.32109-2.4733 0.4333-14.323 0.74677-5.7431 0.15192-10.502 0.33628-10.575 0.40969-0.28523 0.28522 3.687 3.6124 4.9434 4.1407 0.93631 0.39369 8.5912 0.36182 19.646-0.0818zm59.131-8.997c1.5169-1.5713 1.7447-1.9221 1.4325-2.2067-0.29905-0.27258-3.6116-0.29195-17.04-0.0996-15.526 0.22239-32.262-0.0364-33.03-0.5108-0.1338-0.0827-0.0772-0.2433 0.12574-0.35688 0.7227-0.40444 17.03-1.0345 34.089-1.3171 19.211-0.31822 17.963-0.18536 19.662-2.0929 1.4144-1.5875 2.1007-1.5062-14.299-1.6944-14.339-0.16463-17.556-0.31624-16.798-0.79154 0.18357-0.11508 3.1601-0.32408 6.6146-0.46444 3.4544-0.14036 8.9597-0.36799 12.234-0.50584s7.7391-0.32185 9.9219-0.40889c2.1828-0.087 4.2986-0.2837 4.7017-0.43704 0.88752-0.33756 2.1633-1.7853 1.8497-2.099-0.21977-0.21977-107.46-0.34164-107.68-0.12237-0.23558 0.23558 1.3835 2.3302 2.0792 2.69 0.61302 0.317 3.2547 0.37887 16.027 0.37535 24.943-7e-3 47.969 1.0138 47.969 2.1262 0 0.44171-10.666 0.53664-27.649 0.24606-15.286-0.26154-34.419-0.18458-34.743 0.13976-0.15355 0.15355 1.0134 2.2596 1.5487 2.7948 0.48869 0.48869 0.92862 0.51871 7.7281 0.52741 13.447 0.0172 23.915 1.0688 31.155 3.1296 5.8709 1.6711 8.2217 2.2082 11.509 2.6296 1.0186 0.13054 10.613 0.25528 21.322 0.27719l19.47 0.0398zm-94.699-18.968c-0.0962-0.40019-0.28269-1.1443-0.41433-1.6536-2.5154-9.7324-2.8618-12.71-2.0015-17.206 0.67618-3.5336 1.6672-5.5267 6.1575-12.384 5.5277-8.4411 5.9872-9.3374 5.991-11.686 4e-3 -2.5548-0.92487-3.9327-4.4601-6.615-3.7575-2.851-4.6302-4.0742-4.6302-6.4899 0-1.3356 0.0816-1.5288 1.0583-2.5055 1.0394-1.0394 1.0925-1.0583 2.97-1.0583 1.4492 0 2.3613 0.17425 3.7703 0.72027 5.09 1.9725 12.128 6.4564 15.419 9.8237 0.76398 0.7817 1.3891 1.5186 1.3891 1.6375 0 0.11892 0.14883 0.37354 0.33073 0.56584 0.93494 0.98837 1.6017 3.4796 1.4434 5.3933-0.29609 3.5804-1.0199 5.1603-5.5555 12.126-2.6804 4.1163-3.7427 5.9933-5.3096 9.3822-0.39382 0.85174-0.35422 6.3102 0.0487 6.7131 0.17108 0.17108 0.31105 0.47298 0.31105 0.6709 0 0.19791 0.36706 0.92053 0.81569 1.6058 2.0636 3.1522 5.3154 3.6617 10.429 1.634 1.435-0.56901 4.6268-2.1962 5.6558-2.8834l1.1579-0.77328-1.1775-1.2812c-1.422-1.5473-2.335-3.4365-2.312-4.784 0.0202-1.1864 0.57236-3.9216 0.84704-4.1962 0.10687-0.10687 0.19445-0.38282 0.19463-0.61323 5.3e-4 -0.53697 0.99855-1.6516 1.8518-2.068 0.3638-0.17752 1.1972-0.35535 1.8521-0.3952l1.1906-0.0724 0.16611-1.4552c0.0914-0.80036 0.25566-2.2402 0.36511-3.1997 0.12324-1.0803 0.08-2.4276-0.11346-3.5388-0.3284-1.8858-0.41889-2.0214-4.1398-6.2064-0.59189-0.66571-1.6484-1.924-2.3478-2.7961l-1.2716-1.5857 0.16583-1.9884c0.1639-1.9654 0.15457-2.0053-0.80511-3.4414-0.53402-0.79912-1.0516-1.5125-1.1502-1.5852-0.0986-0.0728-0.73361-0.88953-1.4112-1.815-1.0178-1.3902-1.2319-1.8821-1.2319-2.8293 0-1.2356 0.64163-1.9728 1.7125-1.9677 1.5254 7e-3 3.2145 1.2784 7.1494 5.3801 2.182 2.2744 4.1236 4.1953 4.3148 4.2686 0.19118 0.0734 0.84673-0.12881 1.4568-0.44929 0.88997-0.46753 1.5536-0.58285 3.3581-0.58355 2.9321-1e-3 3.644 0.37343 5.4941 2.8909 0.9849 1.3401 1.4711 3.4439 1.3047 5.6449l-0.15019 1.9859 2.5627 2.6717c2.7167 2.8322 6.9425 7.4274 8.6526 9.4091 2.3299 2.6998 3.6786 3.8287 5.0259 4.2068 2.1186 0.59457 3.6256 1.4696 4.9267 2.8606 1.3367 1.429 1.8246 2.3488 2.4685 4.6529 0.4067 1.4553 0.51946 1.5919 2.2036 2.6697 0.9762 0.62473 2.1916 1.3633 2.701 1.6412 0.50933 0.27793 0.98558 0.56593 1.0583 0.64001 0.39235 0.39948 3.4425 2.1143 3.7607 2.1143 0.82587 0 2.3854-2.1539 2.9809-4.117 0.60611-1.9981 0.48932-3.3221-0.47705-5.408-0.30698-0.6626-1.9765-3.1909-2.2713-3.4396-1.1451-0.96612-2.411-4.4518-2.3941-6.5921 0.0116-1.4621 0.4918-3.7891 0.85745-4.1548 0.10407-0.10406 0.18921-0.35298 0.18921-0.55315 0-0.45248 0.33394-0.88992 1.8911-2.4772 2.486-2.5341 7.3758-3.8601 10.526-2.8544 3.6557 1.1673 5.7755 3.0998 7.0032 6.3844 0.36868 0.98634 0.45208 1.8536 0.38168 3.9688-0.0776 2.3326-0.19428 2.9188-0.84426 4.2425-0.4148 0.84475-1.1659 2.0753-1.6692 2.7346-0.50324 0.65927-1.278 1.9131-1.7218 2.7864-0.71542 1.4078-0.79427 1.7874-0.69607 3.3508 0.13258 2.111 0.84832 3.7697 2.2165 5.1366 0.5462 0.54571 0.85419 0.99219 0.68442 0.99219-0.66739 0-0.24475 0.92475 1.0804 2.3639 1.5942 1.7313 2.0505 2.9413 2.0505 5.4372v1.724h4.1871l0.70581-1.9182c0.38819-1.055 0.83125-2.2159 0.98457-2.5797 0.86041-2.0416 1.5334-4.2395 2.552-8.3344 1.1135-4.4763 1.625-9.7862 1.6225-16.844-3e-3 -7.6467-0.62601-13.101-2.127-18.61-0.11895-0.43656-0.35696-1.3295-0.52893-1.9844-0.17197-0.65485-0.40167-1.4288-0.51044-1.7198-0.10877-0.29105-0.34119-1.0054-0.5165-1.5875-0.1753-0.58209-0.41998-1.2965-0.54372-1.5875-0.12375-0.29105-0.67599-1.6603-1.2272-3.0427s-1.2339-2.9303-1.5171-3.4396c-0.28319-0.50932-0.91589-1.676-1.406-2.5926-0.49011-0.91662-1.2139-2.1668-1.6085-2.7781s-0.83885-1.307-0.98734-1.5459c-1.7775-2.8597-5.495-7.431-8.4721-10.418-3.4095-3.4206-5.7887-5.3417-10.088-8.145-5.6362-3.6752-10.923-6.1121-16.371-7.546-4.6147-1.2146-6.818-1.5247-13.843-1.9478-6.3026-0.37966-10.633-0.0858-15.922 1.0803-0.65485 0.14438-1.5478 0.33741-1.9844 0.42895-0.43656 0.0915-1.0319 0.26394-1.3229 0.38311-0.29104 0.11917-1.6007 0.54082-2.9104 0.937-2.9787 0.90104-8.0959 3.2408-10.98 5.0206-0.50932 0.31427-1.1046 0.64077-1.3229 0.72554-0.84123 0.3267-6.1541 4.1427-8.7037 6.2516-1.4703 1.2161-3.7933 3.3891-5.1623 4.8289-2.4175 2.5425-6.5068 7.6665-6.5068 8.1532 0 0.13253-0.0893 0.28064-0.19843 0.32915-0.34448 0.1531-2.074 3.1461-3.7204 6.4382-1.997 3.9932-2.4355 5.0154-3.3479 7.8052-0.40456 1.2369-0.82645 2.4871-0.93755 2.7781-0.24502 0.6419-0.76602 2.6066-1.5611 5.887-1.137 4.691-1.8817 11.248-1.8683 16.45 8e-3 2.9384 0.53859 9.0165 1.0305 11.794 0.12885 0.72761 0.31501 1.7992 0.4137 2.3812 0.0987 0.58209 0.27479 1.356 0.39135 1.7198 0.11655 0.36381 0.36277 1.1972 0.54714 1.8521 0.6833 2.4268 2.6352 8.1535 3.2917 9.6573 0.19058 0.43656 0.41505 1.0021 0.49882 1.2568 0.1348 0.40977 0.55239 0.46302 3.631 0.46302h3.4787zm66.458-35.095c-0.95183-0.72254-0.56447-1.3204 1.4552-2.2462 1.055-0.48359 2.5136-1.153 3.2412-1.4876 2.5783-1.1856 4.2496-1.9415 5.5562-2.513 1.4707-0.64327 3.0918-1.382 5.738-2.6148 0.97309-0.45335 1.828-0.82426 1.8998-0.82426 0.0718 0 0.88295-0.34446 1.8026-0.76545 0.91965-0.421 2.2376-1.0163 2.9289-1.3229 0.69123-0.30661 1.7628-0.78326 2.3812-1.0592 0.61847-0.27597 1.8984-0.8231 2.8443-1.2158 0.94589-0.39274 2.1365-0.89346 2.6458-1.1127 3.0825-1.327 3.7042-1.3622 3.7042-0.21002 0 0.50893-0.44927 0.82558-2.7754 1.9561-1.5264 0.74186-2.8278 1.3488-2.892 1.3488-0.12643 0-2.6279 1.1245-5.5775 2.5074-2.8674 1.3443-4.8976 2.2552-5.0265 2.2552-0.14417 0-2.292 0.96088-7.3428 3.285-0.76398 0.35155-2.163 0.95689-3.1088 1.3452-0.94589 0.38831-2.3151 0.97971-3.0427 1.3142-2.2023 1.0125-3.8268 1.729-3.8997 1.7201-0.038-5e-3 -0.27739-0.16658-0.53205-0.3599zm-2.8443-4.0159c0-0.38737 2.0141-2.4024 3.2779-3.2794 0.30721-0.2132 0.79355-0.60404 1.0808-0.86854s1.4183-1.16 2.5135-1.9899c1.0952-0.82993 2.0509-1.5733 2.1236-1.6518 0.0728-0.0786 0.66807-0.55344 1.3229-1.0552 0.65484-0.50181 1.2502-0.97566 1.3229-1.053 0.0728-0.0774 0.60854-0.49085 1.1906-0.9189 0.58208-0.42804 1.1179-0.84982 1.1906-0.93728 0.0728-0.0875 0.54901-0.44772 1.0583-0.80057 0.50932-0.35285 1.0451-0.73719 1.1906-0.85408s1.1576-0.89157 2.249-1.7215 2.0241-1.6007 2.0726-1.7129c0.0485-0.11212 0.24694-0.20387 0.44097-0.20387s0.39247-0.0893 0.44097-0.19843c0.0485-0.10914 0.98117-0.86443 2.0726-1.6784 7.0073-5.2261 6.9538-5.1927 7.6299-4.7679 0.19463 0.12227 0.3137 0.49991 0.26459 0.83919-0.0823 0.56825-0.72893 1.1409-4.4645 3.9535-0.48319 0.3638-1.1847 0.90804-1.559 1.2094-0.91784 0.73915-5.5908 4.3097-10.139 7.7473-13.317 10.064-13.728 10.358-14.505 10.358-0.5279 0-0.77495-0.13246-0.77495-0.41549zm-2.9104-2.7521c0-0.42687 2.0244-3.3328 3.8241-5.4895 0.2162-0.25908 2.262-2.7928 4.5461-5.6304 5.2176-6.4819 9.4137-11.659 10.8-13.325 0.58881-0.70775 1.5252-1.8388 2.0808-2.5135 2.7954-3.3946 3.1581-3.7403 3.9242-3.7403 1.2931 0 0.9539 0.956-1.3639 3.8436-1.1649 1.4513-2.6234 3.2743-3.2411 4.0511-0.61774 0.77681-1.2447 1.5507-1.3932 1.7198s-0.74384 0.90273-1.3229 1.6303c-0.57908 0.7276-1.114 1.3824-1.1888 1.4552-0.0748 0.0728-0.66843 0.78713-1.3193 1.5875-0.65084 0.80036-1.2445 1.5147-1.3193 1.5875-0.0748 0.0728-0.60814 0.7276-1.1853 1.4552-0.57715 0.7276-1.1159 1.3824-1.1972 1.4552-0.0813 0.0728-1.2156 1.442-2.5207 3.0427-3.1104 3.815-3.072 3.7685-3.7865 4.5863-0.33894 0.38796-1.2723 1.516-2.0742 2.5069-1.7206 2.126-3.2627 2.9663-3.2627 1.7778zm-1.9626-3.5954c-0.52047-0.52047-0.45105-0.79534 0.95636-3.7869 0.57326-1.2185 1.3848-2.9633 1.8034-3.8773 0.41862-0.91401 1.3768-2.9531 2.1292-4.5314 0.75246-1.5782 1.8178-3.822 2.3674-4.9862 0.54961-1.1642 1.7091-3.605 2.5767-5.424s2.1008-4.4286 2.7404-5.7992c2.6553-5.6891 3.2616-6.7659 3.8575-6.8508 0.36412-0.0519 0.68124 0.11257 0.85953 0.4457 0.32219 0.60203 0.21546 0.95292-1.2149 3.9943-0.51531 1.0957-1.2959 2.7661-1.7346 3.712-0.43871 0.94588-1.5114 3.2081-2.3838 5.0271s-2.0615 4.3193-2.6425 5.5562c-2.7556 5.8666-8.3107 16.791-8.5782 16.869-0.16501 0.0484-0.49647-0.10851-0.73659-0.34862zm-3.8653-5.2842c-0.25918-0.31228-0.26951-0.63147-0.045-1.3891 0.28848-0.97328 0.39458-1.4452 0.84584-3.7617 0.41006-2.1051 0.54952-2.7594 0.7896-3.7042 0.26615-1.0474 0.57567-2.4151 1.1975-5.2917 0.23593-1.0914 0.65156-2.9369 0.92362-4.101s0.56722-2.4738 0.65589-2.9104c0.15127-0.74467 0.29857-1.355 0.95787-3.9688 0.14682-0.58208 0.36922-1.5346 0.49421-2.1167 0.2071-0.9644 0.98383-4.1016 1.6138-6.5181 0.2542-0.97513 0.93445-1.4151 1.5755-1.0189 0.36348 0.22464 0.23998 2.1506-0.27122 4.2297-0.33712 1.3711-0.69475 2.9591-0.92361 4.101-0.0875 0.43656-0.27249 1.2402-0.4111 1.7859-0.13861 0.54571-0.3809 1.4982-0.53843 2.1167-0.63652 2.499-0.93348 3.7831-1.698 7.3422-0.61522 2.8642-0.92351 4.2246-1.2292 5.424-0.14834 0.58208-0.36912 1.475-0.49063 1.9844-0.12151 0.50933-0.34981 1.4321-0.50734 2.0505-0.15752 0.61847-0.39718 1.571-0.53257 2.1167-0.773 3.1158-1.137 4.0349-1.5982 4.0349-0.25968 0-0.62357-0.18246-0.80864-0.40546zm-4.6566-2.3597c-0.30693-0.21498-0.63702-0.7821-0.73353-1.2603-0.22733-1.1264-0.17495-28.34 0.0592-30.764 0.14348-1.4856 0.27214-1.8671 0.65433-1.9401 0.26165-0.05 0.66472 0.066 0.89571 0.25772 0.37818 0.31386 0.40527 1.9552 0.27223 16.492-0.0813 8.879-0.24723 16.473-0.36882 16.875-0.20649 0.68284-0.25792 0.7053-0.77914 0.34022zm-6.9166-2.4075c-0.29069-0.2036-0.5948-0.70064-0.6758-1.1045-0.36538-1.8218-0.49858-2.3564-0.71041-2.851-0.12464-0.29104-0.28694-0.88635-0.36066-1.3229-0.0737-0.43657-0.26647-1.3295-0.42833-1.9844-0.16185-0.65484-0.40659-1.7264-0.54386-2.3812s-0.35546-1.6669-0.48487-2.249c-0.33437-1.504-1.6369-7.7119-1.9152-9.1281-0.12869-0.65485-0.34819-1.7859-0.48778-2.5136-0.13958-0.7276-0.37959-1.9182-0.53335-2.6458-0.61302-2.9009-0.63674-3.5497-0.13678-3.7416 0.97567-0.3744 1.4234 0.32218 1.9798 3.0801 0.13211 0.65485 0.37277 1.7264 0.53479 2.3812 0.16201 0.65485 0.40071 1.7264 0.53043 2.3812 0.12973 0.65485 0.36039 1.7562 0.5126 2.4474 0.31283 1.4207 0.45949 2.1137 1.4699 6.9453 0.39561 1.8918 0.81959 3.9158 0.94219 4.4979 1.6645 7.9031 1.7114 8.2231 1.2318 8.4071-0.21782 0.0836-0.63386-0.0146-0.92455-0.21823zm-9.1513-4.0906c-0.7295-0.86696-5.547-10.53-7.8467-15.74-0.32121-0.7276-0.92812-2.0355-1.3487-2.9065-0.85383-1.7681-0.9332-2.3128-0.40135-2.7542 0.70109-0.58185 1.2678 0.0672 2.7202 3.1153 0.80575 1.691 2.036 4.2652 2.7339 5.7204 0.69789 1.4552 1.6529 3.4793 2.1223 4.4979 0.93802 2.0357 3.3629 7.1766 3.6816 7.8052 0.61268 1.2086-0.69159 1.4141-1.6612 0.26175zm-11.7-1.7872c-0.30459-0.20819-3.3086-3.6226-6.3302-7.195-1.0186-1.2043-2.1217-2.5031-2.4512-2.8862-0.79109-0.91966-0.65878-1.4704 0.37747-1.5713 0.60325-0.0587 0.93826 0.0703 1.2173 0.46865 0.21175 0.30231 0.78873 0.99531 1.2822 1.54 0.49346 0.54468 1.4898 1.703 2.2142 2.5741s1.3856 1.6433 1.4695 1.716c0.77836 0.6751 3.6957 4.6643 3.6957 5.0535 0 0.51844-0.89056 0.69971-1.475 0.30023zm74.071 60.851c-0.39676-0.63496-1.2918-1.0292-3.1429-1.3846-3.5087-0.67356-5.8513-1.25-6.5448-1.6105-0.25268-0.13134-0.64125-0.2388-0.86348-0.2388s-0.6108-0.10517-0.86349-0.23371-0.75709-0.35047-1.1209-0.49316c-2.7749-1.0884-8.3302-4.1648-11.441-6.3354-0.68973-0.48135-1.3213-0.87519-1.4036-0.87519-0.0822 0-0.84476-0.47212-1.6945-1.0492-1.7699-1.2019-6.9466-3.8089-8.1011-4.0798-3.6552-0.85747-4.4932-0.94768-6.0609-0.6524-3.6259 0.68294-7.2889 2.235-14.559 6.169-1.0186 0.55123-2.8046 1.4932-3.9688 2.0932-1.1642 0.60004-2.1564 1.1803-2.2049 1.2894s-0.24562 0.19843-0.43802 0.19843-0.86709 0.25504-1.4993 0.56674c-2.9795 1.469-6.5762 2.625-10.674 3.4307-3.5537 0.69866-4.9508 0.82016-10.782 0.93767-3.4561 0.0696-6.2839 0.2248-6.2839 0.34477 0 0.11998 0.53449 0.46937 1.1878 0.77644 1.0794 0.5074 1.651 0.55831 6.2679 0.55831 2.7941 0 5.8017-0.12826 6.6836-0.28502 4.8228-0.85729 5.0841-0.91319 7.9534-1.7021 3.2667-0.89814 4.9232-1.5697 9.2604-3.7544 2.7691-1.3948 3.6934-1.886 7.2099-3.8314 2.4636-1.3629 4.9425-2.5575 7.6068-3.6658 0.29104-0.12106 0.97565-0.34705 1.5214-0.50219s1.3876-0.40113 1.8709-0.54665c1.092-0.3288 4.1798-0.34583 4.9958-0.0276 0.33427 0.13037 1.1435 0.39345 1.7984 0.58463 1.2488 0.36459 5.189 2.3235 6.3908 3.1773 0.38626 0.27441 0.76726 0.49893 0.84665 0.49893 0.0794 0 1.4987 0.88306 3.154 1.9624 4.0307 2.6281 4.8022 3.0702 8.6585 4.9609 1.819 0.89186 3.514 1.723 3.7667 1.8471 0.25269 0.12404 0.69214 0.22552 0.97657 0.22552s0.58224 0.10534 0.66181 0.23408c0.0796 0.12874 0.47355 0.29754 0.87551 0.3751 0.40196 0.0776 1.2071 0.27981 1.7892 0.44944 1.2312 0.3588 2.913 0.67562 5.6812 1.0702 1.0874 0.15501 2.0319 0.33673 2.099 0.40382 0.31843 0.31843 0.65885-0.45567 0.38977-0.8863zm-56.409-16.397c0.944-1.1085 1.5229-4.2331 1.6097-8.6888 0.0467-2.3958-0.0288-3.309-0.30076-3.638-0.84885-1.0268-1.0363-0.4169-1.3695 4.4555-0.40145 5.8705-0.56096 7.3883-0.80898 7.6973-0.22665 0.28235-0.062 0.63711 0.29574 0.63711 0.0987 0 0.35692-0.20836 0.57379-0.46302zm17.281-3.0753c0.46415-0.33939 0.25377-0.63866-3.1906-4.5387-2.0281-2.2964-4.2233-4.7957-4.8781-5.554-1.9975-2.3128-4.8137-5.4659-6.376-7.1388-0.81546-0.87312-2.4977-2.7186-3.7382-4.101-3.087-3.44-4.6295-4.7625-5.555-4.7625-0.64091 0-0.5907 0.53322 0.12501 1.3277 0.32743 0.36345 1.0009 1.1361 1.4966 1.7171 1.0858 1.2724 4.4098 4.9917 6.2609 7.0054 0.73776 0.80256 1.8093 1.9904 2.3812 2.6397 0.57194 0.64927 1.586 1.7804 2.2536 2.5135 0.66753 0.73317 1.5605 1.7454 1.9844 2.2494 0.42387 0.50399 1.3168 1.516 1.9844 2.249s1.5575 1.7493 1.9777 2.2587c1.1594 1.4053 4.2856 4.4979 4.5467 4.4979 0.12678 0 0.45411-0.1635 0.72741-0.36335zm29.767-7.7106c0-1.8452 0.59529-3.1047 2.249-4.7583 1.585-1.585 2.9174-2.249 4.5132-2.249 0.50962 0 0.66244-0.11856 0.59682-0.46302-0.071-0.37292-0.4171-0.47854-1.7785-0.54281-0.94184-0.0445-1.8135 0.0434-1.9685 0.19844-0.15302 0.15302-0.47111 0.27823-0.70685 0.27823-0.79871 0-2.6972 1.9144-3.3401 3.3681-0.6901 1.5604-0.78642 2.8903-0.30563 4.2199 0.41313 1.1425 0.7406 1.1197 0.7406-0.0515zm-64.204-15.143c0.42306-0.69669-2.085-3.9568-4.8015-6.2412-1.3496-1.1349-5.0051-3.4012-7.0617-4.378-1.0186-0.48379-2.0307-0.96801-2.249-1.076-0.88924-0.44005-3.1394-0.87664-3.6024-0.69896-0.46017 0.17658-0.44852 0.22544 0.16452 0.69043 0.36285 0.27522 1.6122 0.9867 2.7764 1.5811 2.8199 1.4397 3.8946 2.0684 6.5193 3.8139 3.5276 2.346 3.8093 2.5707 5.7043 4.5515 1.7243 1.8024 2.2871 2.1902 2.55 1.7573zm21.709-0.64331c0.21632-1.0816-0.0567-2.6012-0.5736-3.1932-0.27853-0.31893-0.7945-0.46302-1.658-0.46302-1.6348 0-1.8264 0.48312-0.70667 1.7822 1.7817 2.0672 2.3979 2.7157 2.5809 2.7157 0.10395 0 0.26476-0.37878 0.35735-0.84174zm136.03 68.046c-0.0899-0.14552-0.38337-0.26458-0.65207-0.26458-1.9012 0-5.3389-3.2265-6.8594-6.438-1.5554-3.2854-1.9721-5.431-1.9609-10.098 0.0133-5.5248 0.74865-8.4055 3.0056-11.774 1.9143-2.857 4.2515-4.5043 7.4626-5.2597 3.5498-0.83509 7.5132 0.38592 10.239 3.1544 3.0553 3.1031 4.7723 8.1442 4.7723 14.012 0 3.8863-0.52919 6.4735-1.9483 9.525-1.7854 3.8391-4.0593 5.8953-7.8601 7.1071-1.166 0.37176-5.9742 0.4002-6.1989 0.0367zm5.887-5.2336c0.9055-0.91283 1.351-1.6272 1.9337-3.1008 0.77305-1.9549 1.203-8.0826 0.83264-11.866-0.34643-3.5382-0.58705-4.6862-1.3117-6.2584-1.0363-2.2485-2.0112-2.9104-4.2862-2.9104-1.4072 0-1.69 0.0949-2.5608 0.85946-1.9636 1.724-2.727 4.9583-2.7323 11.576-5e-3 6.2809 0.80003 9.8073 2.6648 11.672 0.98336 0.98336 1.1026 1.028 2.7478 1.028 1.6384 0 1.7667-0.0473 2.712-1.0002zm23.217 5.2336c-0.0899-0.14552-0.38337-0.26458-0.65207-0.26458-0.88911 0-2.7666-1.1698-4.2466-2.6458-1.6652-1.6608-3.19-4.4937-3.9162-7.276-1.1678-4.474-1.0366-10.279 0.32308-14.288 1.3248-3.9063 3.8391-7.0154 6.7832-8.388 2.2814-1.0636 4.7008-1.4391 6.6804-1.0369 4.0557 0.82413 5.966 2.0329 8.0007 5.0622 4.067 6.0554 4.4126 16.969 0.72578 22.925-1.3331 2.1535-1.827 2.7288-3.3239 3.8713-1.1748 0.89661-1.7355 1.1997-3.706 2.0032-0.91491 0.37307-6.4416 0.40389-6.6683 0.0372zm5.371-4.6094c0.84191-0.44311 1.3049-0.98109 2.0737-2.4096 1.8999-3.5302 1.9368-15.39 0.0601-19.302-1.105-2.3032-2.1563-3.0474-4.3052-3.0474-1.4205 0-1.7467 0.10125-2.6048 0.80858-1.9982 1.6471-2.8438 4.9634-2.8438 11.154 0 6.5516 0.88067 10.338 2.8205 12.126 1.0404 0.959 1.261 1.0475 2.6107 1.0475 0.81084 0 1.7958-0.16922 2.1887-0.37604zm90.408 4.5454c-3.1676-1.0864-5.5641-3.1987-6.9816-6.1538-1.0589-2.2074-1.2091-2.5881-1.5663-3.9688-0.1506-0.58208-0.4023-1.5484-0.55933-2.1474-0.60291-2.2995-0.33399-7.6256 0.55951-11.082 0.72213-2.7934 2.339-5.6699 4.2351-7.5346 2.3824-2.343 6.3795-3.5574 9.6862-2.9428 0.97362 0.18094 2.0083 0.43145 2.2994 0.55668 1.9651 0.84555 2.575 1.1913 3.5041 1.9867 2.1626 1.8511 4.2564 5.9962 4.8755 9.6522 1.3032 7.695-0.27305 14.526-4.2745 18.526-1.8768 1.8758-2.4786 2.2309-5.3146 3.1351-1.149 0.36634-5.3677 0.34853-6.4635-0.0273zm5.502-4.4758c2.4582-1.3156 3.6261-5.2414 3.6261-12.189 0-4.5442-0.44323-7.6602-1.3651-9.5974-1.0915-2.2936-2.1499-3.0427-4.2988-3.0427-1.3982 0-1.752 0.10569-2.5468 0.76078-1.0841 0.89362-2.0958 2.7939-2.4801 4.6584-0.32562 1.5798-0.3751 11.61-0.0666 13.499 0.11888 0.7276 0.31359 1.561 0.43273 1.8521 0.82796 2.0228 1.2521 2.7484 2.0491 3.5057 0.81444 0.77386 1.0637 0.8599 2.491 0.8599 0.87233 0 1.8437-0.13787 2.1585-0.30637zm73.69 4.4736c-0.3129-0.24871-0.46736-1.1181-0.6228-3.5057-0.35066-5.3855-0.31602-6.5138 0.21013-6.8474 0.6695-0.42457 1.2373 0.0238 2.1536 1.7005 1.7463 3.1955 3.8162 4.4854 7.1977 4.4854 1.7687 0 2.1576-0.0882 2.9064-0.65934 0.86839-0.66235 1.699-1.9941 1.699-2.724 0-1.0637-0.73446-2.598-1.6938-3.5384-0.64331-0.63059-2.3711-1.6896-4.374-2.6809-5.244-2.5954-7.2374-4.7797-8.2208-9.0083-0.63024-2.7099 0.50096-6.421 2.568-8.4249 1.0649-1.0324 3.4077-2.333 4.2025-2.333 0.26115 0 1.1546-0.14042 1.9855-0.31204 1.5949-0.32943 4.0563-0.0494 6.535 0.74349 1.0552 0.33754 1.1883 0.32337 1.8992-0.20216 1.2522-0.92578 1.4924-0.59431 1.6858 2.3262 0.24152 3.6473 0.21019 6.5045-0.0763 6.9573-0.34523 0.54573-1.3787-0.0427-1.818-1.0351-0.55177-1.2466-2.3428-3.0878-3.5476-3.6472-2.5196-1.1697-4.5006-1.0452-5.9178 0.37193-0.80536 0.80537-0.90064 1.0541-0.90064 2.3508 0 2.4256 1.2417 3.6743 6.1586 6.1934 2.8676 1.4691 3.1067 1.626 4.5981 3.0159 2.6544 2.4737 3.929 6.629 2.9685 9.6772-1.232 3.9098-3.3413 5.9923-7.2429 7.1509-1.2737 0.37824-6.3336 0.23308-8.0698-0.23151-2.4242-0.6487-2.6567-0.65279-3.076-0.0542-0.45553 0.65037-0.63666 0.68503-1.2077 0.23116zm-244.6-0.52917c-0.11616-0.1819-0.42576-1.2832-0.68799-2.4474-0.26223-1.1642-0.57923-2.5334-0.70444-3.0427-0.12521-0.50932-0.36424-1.5214-0.53118-2.249-0.29158-1.2708-0.51994-2.2063-1.098-4.4979-0.48584-1.9261-1.044-4.5186-1.6804-7.8052-0.23951-1.2369-0.54282-2.7847-0.67402-3.4396-0.1312-0.65485-0.30965-1.5478-0.39657-1.9844-0.58421-2.9345-1.1854-4.2992-2.3682-5.3754-0.51684-0.47031-0.9397-1.007-0.9397-1.1926 0-0.86445 0.61871-0.97254 5.5667-0.97254h4.9317l0.30056 0.65965c0.26406 0.57956 0.20241 0.77143-0.50785 1.5804-0.77867 0.88685-0.80353 0.99156-0.67591 2.8461 0.12434 1.807 0.33428 3.1807 0.92095 6.0264 0.75042 3.64 1.7241 8.2056 1.9467 9.1281 0.14046 0.58209 0.31934 1.4453 0.3975 1.9182 0.23398 1.4157 0.78807 1.0545 1.1865-0.77336 0.12138-0.55692 0.34046-1.5186 0.48686-2.137 0.14639-0.61847 0.38969-1.7198 0.54067-2.4474 0.15097-0.7276 0.38198-1.7992 0.51336-2.3812 0.26933-1.1933 0.43629-2.0298 0.80536-4.0349 1.3171-7.1554 1.8359-9.4091 2.2786-9.8983 0.32921-0.36376 0.8203-0.48656 1.9458-0.48656 1.681 0 2.2107 0.36911 2.468 1.7198 0.49141 2.5795 0.79922 3.9063 1.9029 8.2021 1.4254 5.5481 1.6636 6.5074 1.9708 7.9375 0.82641 3.8473 1.5958 5.7683 1.5958 3.9844 0-0.35522 0.10648-0.71166 0.23663-0.7921 0.13015-0.0804 0.30105-0.59347 0.37976-1.1401 0.0787-0.54661 0.27536-1.5892 0.43698-2.3168 0.838-3.7728 1.7842-8.9616 2.1159-11.603 0.26661-2.1232-9e-3 -3.0979-1.1504-4.0717-0.80608-0.68755-0.85172-0.93261-0.28012-1.5042 0.34294-0.34294 1.1491-0.41577 4.6019-0.41577 4.9915 0 5.0996 0.0741 3.312 2.2687-0.65228 0.80082-1.186 1.6825-1.186 1.9593s-0.11906 0.57684-0.26458 0.66678c-0.14552 0.0899-0.26458 0.50666-0.26458 0.92604 0 0.41939-0.103 0.82618-0.22888 0.90398-0.12589 0.0778-0.302 0.59084-0.39135 1.1401-0.15006 0.92237-0.27878 1.5008-0.94347 4.2398-0.13243 0.5457-0.44266 1.9447-0.6894 3.1088s-0.55582 2.5929-0.68685 3.175c-0.13102 0.58208-0.36175 1.6536-0.51272 2.3812-0.15098 0.7276-0.38839 1.8289-0.52758 2.4474-1.0312 4.5817-1.3806 6.2051-1.9929 9.2604l-0.17234 0.8599h-6.1899l-0.32566-1.3891c-0.17912-0.76399-0.43564-1.8058-0.57007-2.3151-0.13442-0.50932-0.55778-2.2357-0.9408-3.8365-0.38301-1.6007-0.79577-3.2676-0.91723-3.7042-0.12146-0.43657-0.36178-1.3295-0.53404-1.9844-0.17225-0.65484-0.40464-1.4883-0.51641-1.8521-0.11176-0.3638-0.35514-1.1675-0.54083-1.7859-0.40453-1.3474-0.65002-1.4188-0.90848-0.26458-0.18655 0.8331-0.31906 1.3866-0.93431 3.9026-0.7088 2.8986-2.0475 9.4376-2.5052 12.237l-0.16223 0.99219h-3.0151c-2.123 0-3.0776-0.0978-3.2263-0.33073zm89.08-0.30742c0-0.36012 0.22629-0.81328 0.50292-1.007 0.27659-0.19373 0.78261-0.82556 1.1245-1.4041l0.62156-1.0518 0.0829-12.08c0.0534-7.787-0.0148-12.443-0.19193-13.101-0.15115-0.56131-0.71183-1.4839-1.246-2.0501-0.75387-0.79925-0.9117-1.1239-0.70546-1.4511 0.2281-0.36188 1.1168-0.43156 6.2835-0.49267 8.1265-0.0961 10.765 0.40783 13.693 2.615 2.8209 2.1265 4.6375 5.9683 5.521 11.676 0.30184 1.9501 0.25882 2.9447-0.27188 6.2854-0.9647 6.0729-3.8429 9.826-9.1426 11.922-1.3121 0.51886-2.5475 0.61307-9.1943 0.70112l-7.0776 0.0938zm14.212-4.4806c1.754-1.1191 2.8101-2.6121 3.4915-4.9354 0.19203-0.65484 0.48125-1.5478 0.64269-1.9844 0.41651-1.1262 0.35195-8.9723-0.0849-10.319-0.8223-2.5346-1.2413-3.3749-2.2985-4.61-1.321-1.5433-2.9013-2.1757-5.2023-2.0819l-1.8974 0.0773-0.0394 12.039c-0.0217 6.6212 0.0111 12.205 0.0727 12.408 0.19167 0.63188 4.0745 0.19842 5.3155-0.5934zm21.108 4.6641c-0.10832-0.25927-0.28802-0.88811-0.39933-1.3974-0.62347-2.8526-1.3296-5.8407-2.3916-10.12-0.15348-0.61846-0.39161-1.6305-0.52916-2.249-0.13756-0.61846-0.36399-1.6305-0.50319-2.249-0.2296-1.0202-0.37637-1.7194-1.0691-5.0932-0.11951-0.58209-0.35248-1.8193-0.51771-2.7494-0.8776-4.9404-1.6199-6.7408-2.9888-7.2486-0.53232-0.19747-0.61161-0.99227-0.14552-1.4584 0.22355-0.22356 1.7345-0.3175 5.1065-0.3175 3.372 0 4.8829 0.0939 5.1065 0.3175 0.51345 0.51345 0.36629 1.3965-0.34396 2.0638-0.57883 0.54379-0.66146 0.84445-0.66146 2.4072 0 0.98218 0.11869 2.3604 0.26374 3.0627 0.14507 0.70232 0.50974 2.5271 0.81041 4.0551 0.30068 1.528 0.66371 3.3139 0.80675 3.9688 0.14303 0.65484 0.36584 1.7264 0.49508 2.3812 0.53793 2.7251 0.80212 3.7432 1.1166 4.3033l0.33219 0.59153 0.083-0.66146c0.0456-0.3638 0.18897-0.89958 0.31853-1.1906 0.12954-0.29105 0.29784-0.88636 0.37402-1.3229 0.0761-0.43656 0.26286-1.3593 0.41489-2.0505 0.59949-2.7256 0.86045-3.9958 1.59-7.7391 0.11343-0.58209 0.34179-1.8918 0.50745-2.9104 0.59983-3.6887 1.2511-6.3517 1.6986-6.9453 0.15285-0.20276 0.88966-0.33073 1.9043-0.33073 1.0147 0 1.7515 0.12797 1.9043 0.33073 0.26455 0.35091 0.77517 2.0064 0.95893 3.1088 0.0606 0.3638 0.43868 2.0307 0.84007 3.7042 0.4014 1.6735 0.82826 3.4594 0.94856 3.9688 0.12031 0.50932 0.34973 1.4618 0.50988 2.1167 0.16013 0.65485 0.39717 1.6669 0.52679 2.249 0.12962 0.58209 0.36983 1.5941 0.53382 2.249s0.36224 1.5787 0.44056 2.053c0.0783 0.4743 0.24834 0.92781 0.37777 1.0078s0.23535 0.49561 0.23535 0.92359c0 0.76665 0.34149 1.0312 0.6619 0.51283 0.0902-0.14591 0.28097-0.89005 0.424-1.6536 0.14301-0.76359 0.37936-1.9241 0.52525-2.579 0.29879-1.3413 0.47712-2.2751 1.2632-6.6146 0.30314-1.6735 0.6734-3.7047 0.82281-4.5138 0.51128-2.7692 0.29892-3.8358-0.96102-4.8269-0.34071-0.26799-0.61945-0.69292-0.61945-0.9443 0-0.97987 0.50821-1.092 4.9477-1.092 4.2974 0 4.3127 2e-3 4.3083 0.59531-3e-3 0.33839-0.45302 1.0373-1.0438 1.6195-1.1123 1.0962-1.4508 1.9941-2.6559 7.0456-0.12149 0.50933-0.34229 1.4023-0.49064 1.9844-0.14833 0.58208-0.39627 1.6239-0.55099 2.3151-0.15471 0.69123-0.39561 1.7628-0.53534 2.3812-0.13975 0.61847-0.39121 1.7793-0.5588 2.5797-0.16758 0.80037-0.41116 1.9315-0.54125 2.5135-0.13013 0.58209-0.3601 1.6536-0.51107 2.3812-0.15097 0.72761-0.38839 1.8289-0.52758 2.4474-0.50636 2.2499-0.8114 3.6625-1.0426 4.8286-0.12985 0.65485-0.31686 1.518-0.41558 1.9182l-0.17946 0.72761h-3.0068c-3.3457 0-2.9643 0.22197-3.4096-1.9844-0.0881-0.43656-0.27392-1.2402-0.41293-1.7859-0.13899-0.54571-0.36238-1.4387-0.49636-1.9844-0.13401-0.5457-0.56163-2.1828-0.95025-3.638-0.38865-1.4552-0.80688-3.0626-0.9294-3.5719-0.12253-0.50932-0.35957-1.4023-0.52674-1.9844-0.16719-0.58208-0.36253-1.4155-0.43413-1.8521-0.0716-0.43657-0.18224-0.95599-0.24593-1.1543-0.19992-0.62252-0.8187 0.13837-0.9957 1.2243-0.0886 0.54355-0.28914 1.524-0.44567 2.1789-0.15652 0.65485-0.39714 1.6966-0.53469 2.3151-0.13756 0.61846-0.36918 1.6603-0.5147 2.3151-0.14552 0.65485-0.3706 1.6966-0.50017 2.3151-0.12959 0.61846-0.37994 1.7793-0.55633 2.5797-0.17643 0.80037-0.45736 2.2291-0.62432 3.175l-0.30355 1.7198-2.945 0.0745c-2.6164 0.0662-2.967 0.0219-3.142-0.39687zm61.054 0.27942c-0.54838-0.22127-0.37264-1.108 0.30792-1.554 0.35129-0.23016 0.8573-0.85798 1.1245-1.3952 0.44556-0.89573 0.49286-1.9637 0.57073-12.883 0.0467-6.5484 9e-3 -12.415-0.0834-13.038-0.12454-0.83733-0.44804-1.4168-1.2447-2.2295-1.8328-1.8699-1.6783-1.919 6.299-2.0022 8.9717-0.0936 10.623 0.23732 13.246 2.6551 1.8331 1.6897 2.714 4.0643 2.7264 7.3489 8e-3 2.0914-0.55822 4.4003-1.4082 5.744-0.64415 1.0184-2.5885 2.9381-3.4824 3.4383-0.46775 0.26177-0.30763 0.67003 2.357 6.0104 2.3674 4.7444 3.0141 5.8292 3.7619 6.3095 0.60764 0.39024 0.88006 0.75306 0.83275 1.1091-0.067 0.50426-0.29779 0.53256-4.9049 0.6013-4.2178 0.0629-4.8552 0.0185-4.9961-0.34851-0.0888-0.23136-0.0265-0.55552 0.1383-0.72037 0.41624-0.41623 0.37155-1.5051-0.0988-2.4069-0.21738-0.41681-0.39523-0.86459-0.39523-0.99507 0-0.13047-0.24998-0.80147-0.55555-1.4911-0.30554-0.68963-0.6468-1.492-0.75835-1.783s-0.33779-0.85659-0.50278-1.2568c-0.165-0.40018-0.40691-0.9955-0.53758-1.3229-1.0433-2.6139-1.0112-2.5797-2.4206-2.5797h-1.3105v4.4807c0 2.4644 0.1111 4.7729 0.24686 5.13 0.13578 0.35711 0.61317 1.0665 1.0609 1.5764 1.4714 1.6759 1.199 1.7804-4.5772 1.7566-2.7857-0.0115-5.2137-0.0809-5.3956-0.15434zm13.451-17.035c1.6775-0.89776 2.5758-2.448 2.7981-4.8286 0.43918-4.703-1.5947-7.1787-5.7604-7.0115l-1.9558 0.0785 0.0132 0.99219c7e-3 0.5457 0.037 3.3316 0.0661 6.1908l0.0529 5.1986 2.1189-0.1634c1.1654-0.0899 2.3654-0.29534 2.6668-0.4566zm15.044 16.796c-0.29369-0.35387-0.18806-0.5568 0.72366-1.3902 1.8652-1.7049 1.9367-2.2626 1.9367-15.1 0-12.793-0.0307-13.039-1.8181-14.613-0.97364-0.85702-1.1076-1.0866-0.82974-1.4214 0.27279-0.32869 1.1644-0.39934 5.0399-0.39934 2.5896 0 4.8968 0.0723 5.127 0.1606 0.60179 0.23092 0.52199 0.6948-0.36754 2.1369l-0.78605 1.2744-0.18219 5.6592c-0.20317 6.3106-0.18706 6.3552 1.4672 4.0713 0.44516-0.61458 0.98443-1.329 1.1984-1.5875 1.0986-1.3274 3.5853-4.5912 4.3483-5.7071 1.1091-1.6223 1.2508-3.2723 0.36214-4.2182-1.392-1.4817-0.56989-1.7895 4.7795-1.7895 3.4706 0 4.4148 0.0773 4.6679 0.38227 0.25775 0.31056 0.15457 0.5215-0.54999 1.1245-1.6811 1.4387-3.5557 3.4057-4.7567 4.9912-1.1888 1.5693-1.523 1.9911-2.9001 3.6602-1.1708 1.4189-1.8352 2.4757-1.8352 2.9188 0 0.23509 0.27659 0.87155 0.61468 1.4144 0.33808 0.54281 1.1545 1.999 1.8144 3.2359 2.1095 3.9545 3.4466 6.4436 4.264 7.9375 0.43794 0.80037 1.165 2.1671 1.6157 3.0372 0.45066 0.87007 1.3254 2.07 1.9439 2.6666 1.9916 1.9212 1.8899 1.9691-4.1755 1.9691-4.6582 0-5.32-0.0523-5.4657-0.43193-0.0911-0.23755-9e-3 -0.68404 0.1819-0.99218 0.19121-0.30815 0.474-0.76421 0.62844-1.0135 0.22439-0.36218-0.15994-1.3187-1.9136-4.7625-2.7457-5.392-3.9716-7.6744-4.3043-8.0135-0.29628-0.30203-1.0067 0.49093-1.8275 2.04-0.61817 1.1666-0.69908 4.0928-0.20997 7.5931 0.29765 2.1299 0.36496 2.2815 1.5795 3.5548 1.8804 1.9715 1.7556 2.0256-4.6678 2.0256-4.5414 0-5.4116-0.0632-5.703-0.41436zm-2.6313-49.32c-0.21828-0.1449-0.66638-0.26527-0.99579-0.2675-0.32938-2e-3 -0.80563-0.10932-1.0583-0.23798-0.25268-0.12867-1.2333-0.60518-2.1792-1.0589-0.94588-0.45374-2.3321-1.3966-3.0805-2.0952-1.2955-1.2093-3.2809-4.0318-4.0378-5.74-0.19343-0.43656-0.45688-1.0005-0.58544-1.2532-0.12853-0.25269-0.23371-0.69214-0.23371-0.97657s-0.10591-0.5826-0.23534-0.6626c-0.12944-0.08-0.30224-0.53351-0.38399-1.0078-0.0818-0.47429-0.29811-1.5767-0.48078-2.4498-0.45788-2.1886-0.45865-13.518 0-15.478 0.18685-0.80037 0.40516-1.8433 0.48512-2.3176 0.0799-0.47429 0.2513-0.9278 0.38073-1.0078 0.12944-0.08 0.23535-0.37592 0.23535-0.6576 0-0.78907 2.1615-4.7725 3.4576-6.3721 3.244-4.0035 7.6475-6.0358 13.098-6.0451 2.3788-4e-3 5.9633 0.60672 8.2973 1.4137 1.17 0.40454 1.1739 0.4038 2.0762-0.3884 1.5443-1.3559 1.736-1.0981 2.0897 2.81 0.17103 1.8902 0.31986 4.8952 0.33073 6.6778l0.0186 3.2411h-0.7992c-0.65262 0-0.95591-0.22612-1.6536-1.2328-2.0607-2.9732-4.3879-4.9682-6.8076-5.8356-1.4204-0.50918-4.5142-0.42802-5.865 0.15386-2.2008 0.94798-4.3613 3.7464-5.3382 6.9145-1.3149 4.2643-1.86 11.353-1.2052 15.672 0.99394 6.5546 2.7163 10.067 5.6842 11.591 1.7642 0.90613 5.4342 0.90833 7.3195 4e-3l1.2568-0.60259v-6.456c0-7.2432-0.122-7.8319-1.9876-9.5916-1.1268-1.0628-1.1568-1.4867-0.14227-2.0113 1.0168-0.52582 12.145-0.60156 12.66-0.0862 0.52782 0.52782 0.36086 1.2454-0.48128 2.0687-1.4005 1.369-1.4396 1.6305-1.5821 10.568l-0.13269 8.3237-1.3057 0.98648c-1.4567 1.1005-3.0873 1.9454-5.3089 2.7506-2.0109 0.72893-10.657 1.2224-11.509 0.65689zm-219.02-1.114c-0.5297-0.5297-0.37121-0.97233 0.56879-1.5885 1.3136-0.86111 2.0127-2.0603 2.3084-3.9597 0.16041-1.0303 0.23298-8.1995 0.18578-18.354l-0.0775-16.663-0.60948-1.1417c-0.33522-0.62795-0.9603-1.5088-1.3891-1.9575-0.90343-0.94535-0.93184-1.0751-0.34255-1.5648 0.33246-0.27624 1.7967-0.3845 6.1189-0.45244 3.125-0.0491 6.0835-0.014 6.5744 0.0781 1.2093 0.22686 1.1725 1.0028-0.11611 2.4501-1.4837 1.6663-1.6371 2.6143-1.6371 10.114 0 5.7071 0.0572 6.6491 0.42601 7.0179 0.36874 0.36874 1.2314 0.42131 6.4162 0.391 3.6612-0.0214 6.1187-0.14084 6.3209-0.30722 0.24897-0.20491 0.33073-1.9557 0.33073-7.082 0-8.6454-0.0551-9.0615-1.3633-10.292-1.1306-1.0638-1.2818-1.7232-0.49186-2.146 0.57812-0.3094 10.248-0.34079 12.039-0.0391 1.3747 0.23155 1.466 0.78362 0.34221 2.0696-2.073 2.3724-2.0565 2.2026-2.0537 21.119 3e-3 19.146-0.10668 18.234 2.5052 20.846 1.7033 1.7033 1.4383 1.7756-6.5118 1.7756h-6.8468v-0.57944c0-0.34574 0.45353-0.98973 1.1245-1.5967l1.1245-1.0173 0.0891-6.6715c0.049-3.6693 9e-3 -7.5347-0.0887-8.5898l-0.1778-1.9182h-6.2745c-4.5274 0-6.3629 0.0884-6.592 0.3175-0.4458 0.4458-0.41998 13.066 0.0305 14.896 0.42744 1.7369 1.0529 2.8596 1.9037 3.417 0.46418 0.30415 0.66414 0.64291 0.60883 1.0315-0.082 0.57641-0.10878 0.57885-7.1028 0.64895-5.2386 0.0525-7.1021-0.0113-7.3422-0.25135zm42.065-4e-3c-0.49541-0.49541-0.40341-0.69101 0.9476-2.0148 2.2021-2.1577 2.1745-1.8918 2.1745-20.943 0-12.277-0.0832-16.72-0.33072-17.66-0.21937-0.83315-0.70936-1.6522-1.4552-2.4324-1.2954-1.3551-1.4202-2.0406-0.43915-2.4136 0.42481-0.16152 5.5276-0.23446 13.424-0.19189l12.739 0.0687 0.36816 0.76824c0.48298 1.0078 0.93517 4.4834 0.94997 7.3016 0.0113 2.1472-0.0156 2.2528-0.59468 2.335-0.44129 0.0626-1.0664-0.34422-2.2949-1.4934-1.1322-1.0591-2.109-1.7155-2.9654-1.9925-2.4744-0.80038-9.3651-1.2578-10.423-0.69193-0.4845 0.2593-0.51177 0.61782-0.51177 6.7291 0 6.2696 0.0156 6.4601 0.54094 6.6268 0.74273 0.23574 8.1694-0.15276 8.3448-0.43652 0.0777-0.12577 0.33764-0.22867 0.57757-0.22867 0.23994 0 0.89087-0.44391 1.4465-0.98648 0.82605-0.80661 1.0934-0.93402 1.4664-0.69877 0.40743 0.257 0.45611 0.86319 0.45611 5.6792 0 5.1061-0.0269 5.3967-0.50795 5.4893-0.31208 0.0601-0.77121-0.1978-1.1906-0.66881-0.37547-0.42165-1.0926-1.054-1.5936-1.4053-0.86914-0.60939-1.1057-0.63921-5.1594-0.65048l-4.2485-0.0118-0.0706 6.9931c-0.0547 5.4182 5e-3 7.041 0.26458 7.2058 0.50914 0.32317 7.1664 0.26196 8.5996-0.0791 2.6763-0.6368 3.6235-1.1547 5.6217-3.0735 0.94712-0.90951 1.8568-1.6536 2.0215-1.6536 0.65689 0 0.96261 0.79175 0.79262 2.0527-0.093 0.69005-0.28145 2.3262-0.41869 3.6359-0.33288 3.1767-0.55952 4.4309-0.87253 4.8286-0.36992 0.47008-27.19 0.4829-27.659 0.0132zm34.425-0.1783c-0.26581-0.42562-0.14859-0.66149 0.82809-1.6664 2.0315-2.0902 2.0001-1.7583 2.0001-21.099 0-16.494-0.0148-16.993-0.53717-18.104-0.29544-0.62852-1.0098-1.6346-1.5875-2.2358-1.2148-1.2642-1.2607-1.4654-0.4623-2.0246 0.50473-0.35353 1.8857-0.41188 9.7475-0.41188 10.454 0 12.83 0.21581 15.322 1.3918 5.8809 2.7752 8.3585 10.606 5.8825 18.592-0.75761 2.4437-2.4902 4.679-4.7508 6.1291-0.76399 0.4901-1.3857 1.0362-1.3816 1.2137 4e-3 0.17743 0.29577 0.85838 0.6482 1.5132 1.1557 2.1475 3.8422 7.7983 3.8422 8.0816 0 0.059 0.35719 0.88707 0.79375 1.8402 0.43656 0.95317 0.79375 1.8491 0.79375 1.991s0.11906 0.25796 0.26459 0.25796c0.14552 0 0.26458 0.16183 0.26458 0.35962 0 0.49653 1.8984 2.6092 2.758 3.0692 0.47387 0.25361 0.67953 0.55582 0.6272 0.92167-0.0763 0.53336-0.21588 0.54433-6.9282 0.54433-6.1677 0-6.8787-0.045-7.1349-0.45113-0.2231-0.35367-0.15788-0.58599 0.30189-1.0754 0.32422-0.34511 0.58645-0.96368 0.58645-1.3833 0-0.66603-0.66374-2.9391-1.3136-4.4985-0.12129-0.29105-0.36362-0.94589-0.53851-1.4552-0.17489-0.50933-0.41563-1.1642-0.53501-1.4552-0.11936-0.29104-0.67289-1.7622-1.23-3.2694-1.3933-3.7686-1.6467-4.0077-4.2416-4.0026-1.1347 2e-3 -2.2257 0.10703-2.4244 0.23289-0.2975 0.18847-0.32679 1.2965-0.16608 6.2798 0.22117 6.8578 0.4249 7.6876 2.2984 9.3603 0.74424 0.66448 0.98927 1.0591 0.86265 1.3891-0.16204 0.42223-0.76894 0.46093-7.2287 0.46093-6.6071 0-7.0713-0.0313-7.3614-0.4958zm19.102-23.145c2.7802-1.2946 4.0991-3.8636 4.0991-7.9839 0-5.1601-2.0338-7.745-6.7469-8.5751-1.0186-0.17941-2.5665-0.28634-3.4396-0.23762l-1.5875 0.0886-0.0698 8.6651-0.0697 8.6651 3.2447-3e-3c2.8402-2e-3 3.41-0.0795 4.5696-0.61953zm20.684 23.469c-0.39293-0.39293-0.14343-1.1799 0.5778-1.8226 1.106-0.98541 1.8093-2.6221 2.1321-4.9615 0.39333-2.8506 0.38531-31.149-9e-3 -33.042-0.38502-1.847-0.70458-2.5285-1.7435-3.7184-0.88585-1.0146-0.91929-1.6095-0.11446-2.0347 0.50181-0.2651 11.899-0.38754 12.557-0.1349 0.67437 0.25878 0.53324 1.0408-0.43812 2.4277-0.48438 0.69156-1.0202 1.7474-1.1906 2.3464-0.44347 1.558-0.44066 35.751 3e-3 36.8 0.17214 0.40703 0.85463 1.308 1.5166 2.0021 0.99353 1.0418 1.1533 1.342 0.91508 1.7198-0.2595 0.41162-0.98001 0.46479-7.1568 0.52814-3.7775 0.0387-6.9496-0.0109-7.0489-0.11024zm28.042-4e-3c-0.41119-0.41117-0.11512-1.1894 0.75301-1.9794 1.807-1.6443 1.7164-0.59071 1.7164-19.969v-17.546l-2.1828 0.14722c-3.9962 0.26953-5.6787 1.0048-6.9661 3.0442-0.74023 1.1726-1.8339 1.4221-2.1763 0.49647-0.45749-1.2367 0.46955-9.412 1.1172-9.8519 0.15738-0.10691 6.7864-0.19621 14.731-0.19844 16.449-5e-3 15.145-0.2056 15.428 2.3772 0.40204 3.6669 0.47577 7.4212 0.15341 7.8097-0.50168 0.60448-1.2096 0.46738-1.731-0.33519-0.7942-1.2227-2.1941-2.3511-3.3675-2.7143-1.4943-0.46258-5.8248-1.0293-6.0873-0.79666-0.11504 0.102-0.17457 8.0923-0.13229 17.756 0.0848 19.388-0.018 18.233 1.773 19.935 0.45387 0.4315 0.81738 1.0493 0.81738 1.3891v0.61195h-6.8351c-3.7593 0-6.9145-0.0794-7.0115-0.17639zm21.172 5e-3c-0.41421-0.41422-0.11925-1.1045 0.89307-2.09 0.59092-0.57524 1.436-1.8017 1.878-2.7256 0.91466-1.9117 1.3954-3.3352 2.0688-6.1256 0.1229-0.50932 0.89918-3.5454 1.725-6.7469 0.8259-3.2015 1.5598-6.1185 1.631-6.4823 0.0711-0.36381 0.23048-0.89959 0.35407-1.1906s0.28493-0.82682 0.35854-1.1906c0.0736-0.36381 0.26908-1.1377 0.43439-1.7198 0.16531-0.58208 0.4023-1.475 0.52663-1.9844 0.25879-1.0602 1.5059-5.7625 1.8946-7.1438 0.14332-0.50932 0.35684-1.3428 0.47445-1.8521 0.11761-0.50932 0.30186-1.1365 0.40942-1.3938 0.2055-0.4915-0.0876-1.4466-1.006-3.2781-0.9721-1.9386-0.95684-1.9427 7.2674-1.9427 7.9968 0 7.9224-0.0199 6.8751 1.8436-0.58513 1.0411-0.80849 3.796-0.33168 4.0907 0.12874 0.0796 0.29755 0.47355 0.3751 0.87551 0.14795 0.76685 0.24434 1.1138 1.3788 4.9642 0.3859 1.3097 0.81084 2.7682 0.9443 3.2412 0.13348 0.47294 0.36176 1.2766 0.50728 1.7859 0.14552 0.50933 0.38365 1.3428 0.52917 1.8521 0.7021 2.4574 0.84521 2.9761 1.0583 3.8365 0.12618 0.50932 0.34722 1.3428 0.49123 1.8521s0.6958 2.5929 1.2262 4.6302 1.0864 4.1209 1.2356 4.6302c0.14914 0.50932 0.33279 1.3141 0.40809 1.7884 0.0753 0.47429 0.24283 0.9278 0.37227 1.0078 0.12943 0.08 0.23534 0.4377 0.23534 0.79489s0.10954 0.85617 0.24345 1.1089c0.13388 0.25269 0.51305 1.1738 0.84259 2.0469 0.45537 1.2065 1.0072 1.9853 2.2993 3.245 2.5594 2.4953 2.6359 2.4667-6.3689 2.3814-6.6806-0.0633-7.4383-0.11511-7.6976-0.52633-0.23481-0.37246-0.10977-0.63935 0.68184-1.4552 1.4327-1.4766 1.7281-2.9459 1.1478-5.7101-0.2503-1.1925-0.58259-2.6146-0.73843-3.1603l-0.28337-0.99219h-6.2757c-6.7628 0-6.6434-0.0249-6.9783 1.4552-0.0988 0.43656-0.30353 1.27-0.45496 1.8521-0.15142 0.58209-0.33681 1.9706-0.41198 3.0855l-0.13668 2.0272 1.1375 1.234c0.91707 0.99493 1.0833 1.3198 0.8582 1.677-0.24495 0.38862-0.99221 0.45172-6.0885 0.51407-3.1951 0.0391-5.8909-0.0105-5.9906-0.11024zm22.837-17.868c0-0.31709-0.11099-0.94216-0.24664-1.3891-0.28649-0.94375-0.57415-2.065-1.3284-5.1782-0.52493-2.1664-2.2159-7.7726-2.6736-8.8635-0.12211-0.29104-0.25927-0.76593-0.3048-1.0553-0.14592-0.92694-0.92528-0.79569-1.08 0.18188-0.076 0.48038-0.27506 1.3497-0.44231 1.9318-0.16727 0.58209-0.42476 1.475-0.57221 1.9844-0.14743 0.50932-0.32827 1.2237-0.40188 1.5875-0.0736 0.3638-0.23495 0.89958-0.35853 1.1906-0.12359 0.29104-0.28493 0.82683-0.35854 1.1906-0.0736 0.3638-0.26741 1.1377-0.43069 1.7198-0.83836 2.9887-1.4684 6.2784-1.3555 7.0776 0.0154 0.10914 2.1712 0.19844 4.7906 0.19844 4.7165 0 4.7625-6e-3 4.7625-0.57653zm56.268 17.863c-0.38997-0.38996-0.12174-0.99729 0.98335-2.2264 0.63788-0.70946 1.2535-1.6795 1.368-2.1555 0.35917-1.4932 0.45138-34.576 0.0997-35.791-0.45484-1.5705-0.81306-2.2855-1.6284-3.2504-0.78499-0.92889-0.87262-1.2807-0.47559-1.909 0.21606-0.34198 1.9911-0.40707 12.832-0.47051 8.3436-0.0488 12.754 0.019 13.095 0.20155 0.84061 0.44989 1.4742 3.3198 1.7679 8.008l0.14502 2.3151h-0.8387c-0.66892 0-1.0811-0.26634-2.036-1.3157-1.7323-1.9035-3.2917-2.5511-6.9733-2.896-4.0023-0.37488-6.4254-0.36379-6.8204 0.0312-0.46585 0.46584-0.45312 13.162 0.0132 13.212 0.1819 0.0197 2.0453 6e-3 4.1409-0.0301 4.2147-0.073 5.155-0.31248 6.5828-1.6769 0.7012-0.67007 0.95538-0.77434 1.3229-0.54269 0.40161 0.25311 0.46339 0.91248 0.52662 5.6222 0.0822 6.1234 8e-3 6.319-1.7776 4.7056-1.8505-1.6718-2.4374-1.8564-6.2907-1.9784-1.9243-0.061-3.7995-0.0353-4.1672 0.0569l-0.66847 0.16777v6.8212c0 4.9526 0.087 6.9082 0.3175 7.1387 0.44302 0.44303 7.0504 0.40326 8.9618-0.0539 1.5937-0.38121 3.3155-1.1153 3.9499-1.6841 0.21828-0.19571 1.0233-0.97268 1.7889-1.7266 2.3303-2.2947 2.6553-1.4712 1.9624 4.9728-0.30568 2.8429-0.50409 3.7787-0.91157 4.2995-0.20095 0.25684-3.2566 0.33073-13.676 0.33073-7.3795 0-13.497-0.0794-13.594-0.17639z" fill="#2b2113" stroke-width=".26458"/></g></g></svg>
